<svg xmlns="http://www.w3.org/2000/svg" width="245" height="104.969" viewBox="0 0 245 104.969">
  <defs>
    <style>
      .cls-1 {
        fill: #910000;
      }

      .cls-2 {
        fill: #c10303;
      }

      .cls-3 {
        fill: none;
      }

      .cls-4, .cls-5 {
        stroke: none;
      }

      .cls-5 {
        fill: #e89a00;
      }
    </style>
  </defs>
  <g id="Group_53" data-name="Group 53" transform="translate(615 -247)">
    <path id="Pizza" class="cls-1" d="M4.5-42V0H14.58V-42Zm6.3,8.34h8.22a9.1,9.1,0,0,1,3.54.63,4.7,4.7,0,0,1,2.25,1.83,5.443,5.443,0,0,1,.75,2.94,5.443,5.443,0,0,1-.75,2.94,4.542,4.542,0,0,1-2.25,1.8,9.506,9.506,0,0,1-3.54.6H10.8v8.46h8.22a21.473,21.473,0,0,0,9.03-1.68,11.972,11.972,0,0,0,5.46-4.77,14.165,14.165,0,0,0,1.83-7.35,14.165,14.165,0,0,0-1.83-7.35,11.8,11.8,0,0,0-5.46-4.74A21.814,21.814,0,0,0,19.02-42H10.8ZM41.22-27.6V0h8.82V-27.6Zm28.2,8.28L54.9,0H82.5V-8.28H70.68L84.48-27.6h-27v8.28Zm33.12,0L88.02,0h27.6V-8.28H103.8L117.6-27.6h-27v8.28Z" transform="translate(-519.5 289)"/>
    <path id="Byte" class="cls-1" d="M12-20.88h7.92a22.763,22.763,0,0,0,7.68-1.2,11.751,11.751,0,0,0,5.28-3.54,8.693,8.693,0,0,0,1.92-5.7A9.419,9.419,0,0,0,33.69-36a10.2,10.2,0,0,0-3.06-3.36,13.113,13.113,0,0,0-4.71-2.01,26.948,26.948,0,0,0-6-.63H4.5V0H20.88a27.19,27.19,0,0,0,8.64-1.23,11.758,11.758,0,0,0,5.67-3.78,10.6,10.6,0,0,0,2.01-6.75,10.469,10.469,0,0,0-1.38-5.52A11.031,11.031,0,0,0,32.1-21a17.191,17.191,0,0,0-5.25-2.1,26.906,26.906,0,0,0-5.97-.66H12v5.52h7.74a13.3,13.3,0,0,1,2.73.27,6.523,6.523,0,0,1,2.22.87,4.478,4.478,0,0,1,1.47,1.53,4.538,4.538,0,0,1,.54,2.31,5.052,5.052,0,0,1-.93,3.18,5.043,5.043,0,0,1-2.49,1.71,11.371,11.371,0,0,1-3.54.51H14.58V-34.14h4.2a6.558,6.558,0,0,1,4.08,1.11,3.809,3.809,0,0,1,1.44,3.21,4.32,4.32,0,0,1-.66,2.4,4.185,4.185,0,0,1-1.89,1.56,7.365,7.365,0,0,1-2.97.54H12ZM71.76-27.6H62.4L53.58-5.52l4.68.06L49.38-27.6H39.36L51.3-2.22,44.739,12.969h9.12Zm4.047,0v7.5l18.36-.06.12-7.44Zm4.8-9.6L80.667,0h8.64l.12-37.2ZM113.227.6a18.124,18.124,0,0,0,8.94-2.04,14.985,14.985,0,0,0,5.88-6.12l-8.16-1.98a6.284,6.284,0,0,1-2.7,2.7,8.9,8.9,0,0,1-4.14.9,6.276,6.276,0,0,1-3.51-.96,5.743,5.743,0,0,1-2.19-2.73,10.7,10.7,0,0,1-.66-4.29,14.834,14.834,0,0,1,.39-3.63,6.991,6.991,0,0,1,1.17-2.55,4.865,4.865,0,0,1,1.95-1.53,6.785,6.785,0,0,1,2.73-.51,5.419,5.419,0,0,1,2.79.72,4.455,4.455,0,0,1,1.83,2.01,7.438,7.438,0,0,1,.6,3.15,3.361,3.361,0,0,1-.18.99,6.007,6.007,0,0,1-.48,1.11l2.16-2.76h-17.04v5.04h25.26a9.054,9.054,0,0,0,.06-1.11v-1.23a15.308,15.308,0,0,0-1.74-7.56,11.518,11.518,0,0,0-5.04-4.77,17.987,17.987,0,0,0-8.1-1.65,19.859,19.859,0,0,0-6.48.99,13.908,13.908,0,0,0-4.92,2.85,11.956,11.956,0,0,0-3.09,4.53,16.366,16.366,0,0,0-1.05,6.03,14.67,14.67,0,0,0,1.92,7.62,12.912,12.912,0,0,0,5.43,5.01A18.394,18.394,0,0,0,113.227.6Z" transform="translate(-543.5 339)"/>
    <path id="A" class="cls-1" d="M14.5,0,29,27.5H0Z" transform="translate(-399 261.5)"/>
    <rect id="i" class="cls-2" width="8.82" height="8.82" transform="translate(-478.28 247)"/>
    <g id="Group_52" data-name="Group 52">
      <g id="Subtraction_1" data-name="Subtraction 1" class="cls-3" transform="translate(-615 247)">
        <path class="cls-4" d="M68,92H0V0H92V42H68V92Z"/>
        <path class="cls-5" d="M 60.00040054321289 84.00068664550781 L 60.00040054321289 42.00030136108398 L 60.00040054321289 34.00030136108398 L 68.00040435791016 34.00030136108398 L 83.99980163574219 34.00030136108398 L 83.99980163574219 8.000000953674316 L 8.000000953674316 8.000000953674316 L 8.000000953674316 83.99991607666016 L 60.00040054321289 84.00068664550781 M 68.00040435791016 92.00080108642578 L 68.00040435791016 91.99980163574219 L 8.178710686479462e-07 91.99980163574219 L 8.178710686479462e-07 5.432128773463774e-07 L 91.99980163574219 5.432128773463774e-07 L 91.99980163574219 42.00030136108398 L 68.00040435791016 42.00030136108398 L 68.00040435791016 91.99980163574219 L 68.00040435791016 92.00080108642578 Z"/>
      </g>
      <path id="Subtraction_2" data-name="Subtraction 2" class="cls-2" d="M60,76H0V0H76V34H60V76Z" transform="translate(-607 255)"/>
    </g>
  </g>
</svg>
